<svg width="381" height="299" viewBox="0 0 381 299" fill="none" xmlns="http://www.w3.org/2000/svg">
<path fill-rule="evenodd" clip-rule="evenodd" d="M219.001 45.4779V109.551C219.001 127.232 206.153 141.586 190.327 141.586H110.343L53.4266 196.507L79.2969 141.586H40.7082C24.8819 141.586 12.0327 127.232 12.0327 109.551V45.4779C12.0327 27.7966 24.8819 13.4426 40.7082 13.4426H190.327C206.153 13.4426 219.001 27.7966 219.001 45.4779Z" fill="#FFF2C9" stroke="black" stroke-width="20.5912" stroke-miterlimit="1.5" stroke-linecap="round" stroke-linejoin="round"/>
<path fill-rule="evenodd" clip-rule="evenodd" d="M161.847 133.978V198.052C161.847 215.733 174.696 230.086 190.521 230.086H270.505L327.422 285.007L301.551 230.086H340.139C355.966 230.086 368.815 215.733 368.815 198.052V133.978C368.815 116.297 355.966 101.943 340.139 101.943H190.521C174.696 101.943 161.847 116.297 161.847 133.978Z" fill="#FFF2C9" stroke="black" stroke-width="20.5912" stroke-miterlimit="1.5" stroke-linecap="round" stroke-linejoin="round"/>
<path d="M73.555 96.657C82.5856 96.657 89.9063 88.4784 89.9063 78.3895C89.9063 68.3007 82.5856 60.1221 73.555 60.1221C64.5244 60.1221 57.2038 68.3007 57.2038 78.3895C57.2038 88.4784 64.5244 96.657 73.555 96.657Z" fill="#F69300" stroke="black" stroke-width="8.47755" stroke-miterlimit="1.5" stroke-linecap="round" stroke-linejoin="round"/>
<path d="M307.294 185.158C298.263 185.158 290.943 176.979 290.943 166.892C290.943 156.803 298.263 148.624 307.294 148.624C316.325 148.624 323.645 156.803 323.645 166.892C323.645 176.979 316.325 185.158 307.294 185.158Z" fill="#F69300" stroke="black" stroke-width="8.47755" stroke-miterlimit="1.5" stroke-linecap="round" stroke-linejoin="round"/>
<path d="M113.939 97.2053C122.97 97.2053 130.29 89.0267 130.29 78.9379C130.29 68.849 122.97 60.6704 113.939 60.6704C104.909 60.6704 97.588 68.849 97.588 78.9379C97.588 89.0267 104.909 97.2053 113.939 97.2053Z" fill="#F69300" stroke="black" stroke-width="8.47755" stroke-miterlimit="1.5" stroke-linecap="round" stroke-linejoin="round"/>
<path d="M266.915 185.705C257.884 185.705 250.564 177.526 250.564 167.437C250.564 157.35 257.884 149.171 266.915 149.171C275.946 149.171 283.266 157.35 283.266 167.437C283.266 177.526 275.946 185.705 266.915 185.705Z" fill="#F69300" stroke="black" stroke-width="8.47755" stroke-miterlimit="1.5" stroke-linecap="round" stroke-linejoin="round"/>
<path d="M154.568 97.5008C163.599 97.5008 170.919 89.3221 170.919 79.2333C170.919 69.1444 163.599 60.9658 154.568 60.9658C145.537 60.9658 138.217 69.1444 138.217 79.2333C138.217 89.3221 145.537 97.5008 154.568 97.5008Z" fill="#F69300" stroke="black" stroke-width="8.47755" stroke-miterlimit="1.5" stroke-linecap="round" stroke-linejoin="round"/>
<path d="M226.28 186C217.249 186 209.929 177.821 209.929 167.732C209.929 157.645 217.249 149.466 226.28 149.466C235.311 149.466 242.632 157.645 242.632 167.732C242.632 177.821 235.311 186 226.28 186Z" fill="#F69300" stroke="black" stroke-width="8.47755" stroke-miterlimit="1.5" stroke-linecap="round" stroke-linejoin="round"/>
</svg>
