<svg width="326" height="229" viewBox="0 0 326 229" fill="none" xmlns="http://www.w3.org/2000/svg">
<path fill-rule="evenodd" clip-rule="evenodd" d="M187.387 34.831V83.9038C187.387 97.4457 176.393 108.439 162.852 108.439H94.4143L45.7141 150.502L67.8498 108.439H34.8317C21.29 108.439 10.2957 97.4457 10.2957 83.9038V34.831C10.2957 21.2891 21.29 10.2956 34.8317 10.2956H162.852C176.393 10.2956 187.387 21.2891 187.387 34.831Z" fill="#FFF2C9" stroke="black" stroke-width="20.5912" stroke-miterlimit="1.5" stroke-linecap="round" stroke-linejoin="round"/>
<path fill-rule="evenodd" clip-rule="evenodd" d="M138.483 102.612V151.685C138.483 165.227 149.477 176.22 163.018 176.22H231.456L280.156 218.283L258.02 176.22H291.038C304.58 176.22 315.574 165.227 315.574 151.685V102.612C315.574 89.0701 304.58 78.0766 291.038 78.0766H163.018C149.477 78.0766 138.483 89.0701 138.483 102.612Z" fill="#FFF2C9" stroke="black" stroke-width="20.5912" stroke-miterlimit="1.5" stroke-linecap="round" stroke-linejoin="round"/>
<path d="M62.9368 74.0283C70.6638 74.0283 76.9277 67.7644 76.9277 60.0375C76.9277 52.3106 70.6638 46.0467 62.9368 46.0467C55.2099 46.0467 48.946 52.3106 48.946 60.0375C48.946 67.7644 55.2099 74.0283 62.9368 74.0283Z" fill="#F69300" stroke="black" stroke-width="8.47755" stroke-miterlimit="1.5" stroke-linecap="round" stroke-linejoin="round"/>
<path d="M262.934 141.81C255.207 141.81 248.943 135.546 248.943 127.82C248.943 120.093 255.207 113.829 262.934 113.829C270.661 113.829 276.925 120.093 276.925 127.82C276.925 135.546 270.661 141.81 262.934 141.81Z" fill="#F69300" stroke="black" stroke-width="8.47755" stroke-miterlimit="1.5" stroke-linecap="round" stroke-linejoin="round"/>
<path d="M97.4913 74.4483C105.218 74.4483 111.482 68.1844 111.482 60.4575C111.482 52.7306 105.218 46.4667 97.4913 46.4667C89.7644 46.4667 83.5005 52.7306 83.5005 60.4575C83.5005 68.1844 89.7644 74.4483 97.4913 74.4483Z" fill="#F69300" stroke="black" stroke-width="8.47755" stroke-miterlimit="1.5" stroke-linecap="round" stroke-linejoin="round"/>
<path d="M228.384 142.229C220.657 142.229 214.393 135.965 214.393 128.238C214.393 120.512 220.657 114.248 228.384 114.248C236.111 114.248 242.375 120.512 242.375 128.238C242.375 135.965 236.111 142.229 228.384 142.229Z" fill="#F69300" stroke="black" stroke-width="8.47755" stroke-miterlimit="1.5" stroke-linecap="round" stroke-linejoin="round"/>
<path d="M132.255 74.6743C139.982 74.6743 146.246 68.4104 146.246 60.6835C146.246 52.9566 139.982 46.6927 132.255 46.6927C124.528 46.6927 118.264 52.9566 118.264 60.6835C118.264 68.4104 124.528 74.6743 132.255 74.6743Z" fill="#F69300" stroke="black" stroke-width="8.47755" stroke-miterlimit="1.5" stroke-linecap="round" stroke-linejoin="round"/>
<path d="M193.615 142.455C185.888 142.455 179.624 136.191 179.624 128.464C179.624 120.738 185.888 114.474 193.615 114.474C201.342 114.474 207.606 120.738 207.606 128.464C207.606 136.191 201.342 142.455 193.615 142.455Z" fill="#F69300" stroke="black" stroke-width="8.47755" stroke-miterlimit="1.5" stroke-linecap="round" stroke-linejoin="round"/>
</svg>
