<svg width="190" height="190" viewBox="0 0 190 190" fill="none" xmlns="http://www.w3.org/2000/svg">
<g clip-path="url(#clip0_335_1448)">
<path d="M180.135 51.8613H9.08138V159.794H180.135V51.8613Z" fill="#F69300"/>
<path fill-rule="evenodd" clip-rule="evenodd" d="M189.165 51.8613C188.987 88.2829 189.209 124.704 189.027 161.124C189.027 161.569 188.801 161.994 188.623 162.413C188.412 162.9 187.181 165.768 183.225 166.986C182.988 167.059 181.732 167.448 180.134 167.448C123.117 167.487 66.0997 167.487 9.08147 167.448C4.86785 167.446 2.55651 165.111 2.16413 164.714C0.0515157 162.581 0.0515099 160.214 0.0515099 159.795C0.0515099 52.0802 -0.130117 52.0656 0.18874 50.5331C0.274642 50.1196 0.759485 47.789 3.27722 45.9986C3.65577 45.7286 5.79167 44.2106 9.08147 44.2082C66.0975 44.1693 123.113 44.2082 180.131 44.2082C184.346 44.2082 186.661 46.5435 187.054 46.9425C187.389 47.2831 187.694 47.6503 187.956 48.0348C188.219 48.4191 188.484 48.8132 188.623 49.2438C188.892 50.1001 188.895 51.005 189.165 51.8613ZM171.106 59.5144H18.1113V152.14H171.106V59.5144Z" fill="black"/>
<path fill-rule="evenodd" clip-rule="evenodd" d="M159.325 32.3079C132.718 26.5438 111.298 34.0337 95.1039 54.8667L95.0808 157.377C108.297 141.123 126.777 130.574 158.779 134.68L159.325 32.3079Z" fill="#FFF2C9"/>
<path fill-rule="evenodd" clip-rule="evenodd" d="M161.56 24.8939C162.432 25.2957 163.412 25.5098 164.284 25.9116C165.356 26.4057 166.324 27.4695 166.469 27.6276C166.757 27.9438 168.366 29.706 168.354 32.3443C168.213 66.4674 168.034 100.59 167.808 134.714C167.785 138.215 165.114 140.159 164.657 140.487C164.289 140.758 162.21 142.27 158.986 142.332C157.684 142.358 157.694 142.273 156.406 142.121C129.833 138.966 114.579 147.055 102.798 161.377C102.212 162.091 102.249 162.114 101.53 162.737C101.116 163.096 98.689 165.194 94.6324 165.026C90.5776 164.854 88.4072 162.559 88.0366 162.167C87.7367 161.851 86.0535 160.072 86.0508 157.378C86.0158 123.205 86.034 89.0361 86.0736 54.8636C86.0755 53.1509 86.7981 51.8498 86.9321 51.6094C87.4301 50.7102 91.319 45.674 96.3877 40.9377C121.802 17.1766 151.23 22.7661 161.56 24.8939ZM150.262 38.5563C144.144 37.7987 135.68 37.6077 126.967 40.6149C115.454 44.5904 107.959 52.6107 104.133 57.235L104.115 137.771C110.391 133.58 118.358 129.816 128.411 127.777C136.281 126.179 143.786 125.975 149.794 126.222L150.262 38.5563Z" fill="black"/>
<path fill-rule="evenodd" clip-rule="evenodd" d="M30.5461 32.3077C57.6654 25.6972 79.9829 30.8256 94.5685 54.8665L94.5916 157.377C76.0614 136.696 54.679 130.201 31.0902 134.68L30.5461 32.3077Z" fill="#FFF2C9"/>
<path fill-rule="evenodd" clip-rule="evenodd" d="M28.0502 24.953C41.6967 21.7515 79.6204 13.886 102.41 51.0559C103.253 52.4293 103.443 53.4373 103.484 53.6546C103.561 54.0532 103.598 54.4583 103.599 54.8635C103.644 89.036 103.655 123.205 103.621 157.377C103.618 160.75 101.118 162.691 100.688 163.026C97.755 165.303 94.3741 165.045 93.7943 165.002C90.6939 164.772 88.7654 163.241 88.4217 162.968C87.6218 162.335 87.6683 162.301 87.0001 161.564C69.3639 142.134 51.0647 138.853 33.5466 142.059C32.5704 142.236 32.5789 142.276 31.5805 142.322C30.9066 142.351 26.8153 142.543 23.9168 139.328C22.074 137.286 22.0626 135.102 22.0605 134.714C21.5175 32.5451 21.3611 32.5352 21.6279 31.1091C21.7 30.7237 22.1029 28.5728 24.2875 26.7909C24.9933 26.2145 25.3174 26.0564 25.4185 26.007C26.6819 25.3911 26.7853 25.5689 28.0502 24.953ZM39.608 38.3058L40.0733 125.824C47.5011 125.37 57.4128 125.814 68.1334 129.503C74.8981 131.828 80.7088 135.01 85.5572 138.327L85.5392 56.7903C76.6967 43.253 63.8943 34.2216 39.608 38.3058Z" fill="black"/>
</g>
<defs>
<clipPath id="clip0_335_1448">
<rect width="190" height="146" fill="white" transform="translate(0 22)"/>
</clipPath>
</defs>
</svg>
