<svg width="214" height="194" viewBox="0 0 214 194" fill="none" xmlns="http://www.w3.org/2000/svg">
<path d="M202.889 39.679H10.2285V183.097H202.889V39.679Z" fill="#F69300"/>
<path fill-rule="evenodd" clip-rule="evenodd" d="M213.06 39.6789C212.859 88.0747 213.109 136.47 212.904 184.863C212.904 185.455 212.65 186.02 212.449 186.576C212.211 187.223 210.825 191.034 206.369 192.653C206.102 192.75 204.688 193.267 202.888 193.267C138.669 193.319 74.4491 193.319 10.2286 193.267C5.48274 193.264 2.87944 190.161 2.43749 189.634C0.0580231 186.799 0.0580164 183.654 0.0580164 183.098C0.0580164 39.9698 -0.146553 39.9504 0.212581 37.914C0.309334 37.3645 0.85542 34.2678 3.69118 31.8887C4.11755 31.5299 6.52325 29.5129 10.2286 29.5097C74.4467 29.458 138.664 29.5097 202.884 29.5097C207.632 29.5097 210.239 32.6128 210.682 33.1429C211.059 33.5955 211.403 34.0835 211.698 34.5943C211.994 35.105 212.293 35.6286 212.449 36.2008C212.752 37.3386 212.756 38.541 213.06 39.6789ZM192.719 49.848H20.3991V172.926H192.719V49.848Z" fill="black"/>
<path fill-rule="evenodd" clip-rule="evenodd" d="M179.45 13.6968C149.482 6.03769 125.357 15.9901 107.117 43.6722L107.091 179.885C121.977 158.287 142.791 144.269 178.835 149.726L179.45 13.6968Z" fill="#FFF2C9"/>
<path fill-rule="evenodd" clip-rule="evenodd" d="M181.968 3.84512C182.95 4.37907 184.054 4.66354 185.036 5.19748C186.243 5.85397 187.333 7.2676 187.497 7.47768C187.821 7.89783 189.633 10.2393 189.62 13.745C189.461 59.0867 189.259 104.428 189.005 149.77C188.979 154.422 185.97 157.005 185.456 157.442C185.041 157.801 182.7 159.81 179.069 159.893C177.602 159.928 177.613 159.814 176.163 159.613C146.233 155.42 129.052 166.169 115.783 185.199C115.123 186.148 115.165 186.179 114.355 187.006C113.888 187.483 111.155 190.271 106.586 190.048C102.019 189.82 99.5744 186.77 99.157 186.249C98.8192 185.829 96.9234 183.466 96.9204 179.886C96.881 134.478 96.9014 89.0752 96.9461 43.6679C96.9482 41.3921 97.7621 39.6633 97.913 39.3438C98.4739 38.149 102.854 31.4571 108.563 25.1636C137.188 -6.40929 170.333 1.01783 181.968 3.84512ZM169.242 21.9993C162.352 20.9927 152.819 20.7388 143.005 24.7347C130.038 30.0172 121.596 40.6743 117.287 46.819L117.266 153.832C124.335 148.264 133.309 143.262 144.631 140.553C153.496 138.43 161.948 138.159 168.715 138.487L169.242 21.9993Z" fill="black"/>
<path fill-rule="evenodd" clip-rule="evenodd" d="M34.4045 13.6968C64.9494 4.91299 90.086 11.7274 106.514 43.6722L106.54 179.885C85.6692 152.405 61.5858 143.774 35.0174 149.726L34.4045 13.6968Z" fill="#FFF2C9"/>
<path fill-rule="evenodd" clip-rule="evenodd" d="M31.5934 3.92384C46.9636 -0.33022 89.6777 -10.7816 115.346 38.6085C116.295 40.4335 116.51 41.7728 116.556 42.0616C116.642 42.5912 116.684 43.1295 116.685 43.6679C116.736 89.0752 116.748 134.478 116.71 179.885C116.707 184.367 113.891 186.945 113.407 187.391C110.103 190.416 106.295 190.074 105.642 190.017C102.15 189.711 99.9779 187.676 99.5908 187.313C98.6898 186.472 98.7422 186.428 97.9896 185.448C78.1256 159.63 57.515 155.271 37.7841 159.53C36.6846 159.766 36.6941 159.819 35.5696 159.88C34.8106 159.919 30.2025 160.173 26.9379 155.902C24.8623 153.188 24.8495 150.286 24.8471 149.77C24.2355 14.0119 24.0594 13.9988 24.3599 12.1038C24.4411 11.5917 24.8948 8.73377 27.3554 6.36603C28.1503 5.60012 28.5154 5.39004 28.6293 5.32439C30.0523 4.50597 30.1687 4.74227 31.5934 3.92384ZM44.6111 21.6666L45.1352 137.958C53.5012 137.354 64.6649 137.944 76.7397 142.846C84.3589 145.936 90.9036 150.164 96.3644 154.571L96.3442 46.2282C86.3847 28.2403 71.9652 16.2396 44.6111 21.6666Z" fill="black"/>
</svg>
