<svg width="190" height="180" viewBox="0 0 190 180" fill="none" xmlns="http://www.w3.org/2000/svg">
<path d="M181.996 7.61011H10.6418V170.458H181.996V7.61011Z" fill="#FFF2C9"/>
<path fill-rule="evenodd" clip-rule="evenodd" d="M73.1196 122.086C78.8142 106.656 84.3767 91.1722 90.1705 75.7773C90.3679 75.2527 90.766 74.8241 91.1196 74.3889C93.9374 70.9219 97.7436 70.6913 98.3972 70.6518C98.9566 70.6179 99.521 70.6305 100.079 70.6891C100.636 70.7478 101.215 70.7829 101.731 71.0032C106.487 73.0363 111.098 75.3995 115.855 77.4326L132.384 34.9889C132.61 34.4091 133.907 31.0796 137.775 29.38C141.643 27.68 144.972 28.9768 145.552 29.2027C146.132 29.4286 149.462 30.725 151.161 34.5933C151.411 35.1624 152.829 38.3885 151.342 42.3615C149.714 46.712 132.774 91.9817 130.144 96.4213C130.008 96.6472 129.288 97.8646 128.014 98.9565C124.668 101.824 120.93 101.416 120.287 101.347C119.737 101.285 119.165 101.25 118.656 101.03C113.973 99.0287 109.433 96.7037 104.751 94.6988C98.971 110.333 93.3209 126.015 87.5409 141.649C86.307 144.987 83.7511 146.55 83.294 146.829C82.7286 147.174 79.4244 149.192 75.0799 147.893C74.5355 147.73 73.9598 147.595 73.4935 147.271C65.3463 141.602 57.4262 135.612 49.2789 129.943L18.5719 172.585C18.2079 173.09 16.1202 175.989 11.9498 176.67C10.6659 176.877 9.31548 176.849 8.04886 176.554C7.43327 176.41 3.88283 175.578 1.63949 171.939C-0.533883 168.409 0.269326 164.97 0.408632 164.374C0.713288 163.069 1.28935 161.805 2.0593 160.706C14.0764 143.588 26.4709 126.736 38.7265 109.787C41.2026 106.364 44.7399 105.79 45.3551 105.693C45.9707 105.592 49.5008 105.021 52.938 107.487C59.6821 112.332 66.3961 117.217 73.1196 122.086Z" fill="#F69300"/>
<path fill-rule="evenodd" clip-rule="evenodd" d="M20.6139 158.573L178.946 158.7C179.577 158.7 183.193 158.703 186.214 161.73C187.146 162.662 187.917 163.789 188.424 165.006C190.085 169.005 188.664 172.411 188.418 173C188.179 173.574 186.8 176.871 182.926 178.483C181.675 179.002 180.294 179.285 178.94 179.291C122.73 179.509 66.5195 179.251 10.3101 179.154C6.56081 179.148 4.12832 177.105 3.69689 176.743C3.16406 176.294 0.0274933 173.662 0.0229392 168.859C-0.028674 116.001 0.0229392 63.1428 0.0229392 10.2845C0.0229392 9.65426 0.0229387 6.03405 3.04717 3.00982C3.97833 2.07835 5.10503 1.30415 6.32067 0.797734C10.3183 -0.867247 13.7256 0.551813 14.3159 0.797734C14.8888 1.03637 18.1887 2.4108 19.8014 6.2833C20.323 7.53568 20.6066 8.91437 20.6139 10.2709C20.8777 59.703 20.3503 109.139 20.6139 158.573Z" fill="black"/>
<path fill-rule="evenodd" clip-rule="evenodd" d="M151.836 35.3938C153.555 41.7122 155.659 47.9216 157.378 54.24C157.532 54.8063 157.471 55.4133 157.442 55.9996C157.213 60.692 154.056 63.1714 153.518 63.5938C149.823 66.4956 145.882 65.7358 145.21 65.6063C144.634 65.4953 144.066 65.3305 143.516 65.1264C136.702 62.5983 129.905 60.0267 123.124 57.4118C120.572 56.4277 119.13 54.7001 118.862 54.3788C118.424 53.8537 115.852 50.7717 116.604 46.1341C116.713 45.4592 117.356 41.4966 121.352 39.0257L136.566 29.6175C138.799 28.2364 141.014 28.1156 141.421 28.0935C145.964 27.8457 148.732 30.5713 149.206 31.0387C149.612 31.439 150.026 31.8486 150.321 32.337C150.909 33.3105 151.248 34.4205 151.836 35.3938Z" fill="#F69300"/>
</svg>
