<svg width="190" height="190" viewBox="0 0 190 190" fill="none" xmlns="http://www.w3.org/2000/svg">
<g clip-path="url(#clip0_335_1447)">
<g clip-path="url(#clip1_335_1447)">
<path d="M181.996 8.03271H10.6418V179.928H181.996V8.03271Z" fill="#FFF2C9"/>
<path fill-rule="evenodd" clip-rule="evenodd" d="M73.1196 128.868C78.8142 112.581 84.3767 96.2372 90.1705 79.987C90.3679 79.4332 90.766 78.9808 91.1196 78.5215C93.9374 74.8618 97.7436 74.6184 98.3972 74.5767C98.9566 74.541 99.521 74.5543 100.079 74.6161C100.636 74.6781 101.215 74.7151 101.731 74.9477C106.487 77.0937 111.098 79.5882 115.855 81.7343L132.384 36.9326C132.61 36.3206 133.907 32.8061 137.775 31.0121C141.643 29.2176 144.972 30.5865 145.552 30.8249C146.132 31.0634 149.462 32.4318 151.161 36.515C151.411 37.1157 152.829 40.521 151.342 44.7148C149.714 49.3069 132.774 97.0916 130.144 101.778C130.008 102.016 129.288 103.301 128.014 104.454C124.668 107.481 120.93 107.05 120.287 106.977C119.737 106.912 119.165 106.875 118.656 106.643C113.973 104.53 109.433 102.076 104.751 99.9597C98.971 116.462 93.3209 133.016 87.5409 149.518C86.307 153.042 83.7511 154.692 83.294 154.986C82.7286 155.35 79.4244 157.48 75.0799 156.109C74.5355 155.937 73.9598 155.795 73.4935 155.453C65.3463 149.469 57.4262 143.146 49.2789 137.162L18.5719 182.173C18.2079 182.706 16.1202 185.766 11.9498 186.485C10.6659 186.703 9.31548 186.674 8.04886 186.362C7.43327 186.21 3.88283 185.332 1.63949 181.491C-0.533883 177.765 0.269326 174.135 0.408632 173.506C0.713288 172.128 1.28935 170.794 2.0593 169.634C14.0764 151.565 26.4709 133.777 38.7265 115.886C41.2026 112.273 44.7399 111.667 45.3551 111.565C45.9707 111.458 49.5008 110.855 52.938 113.458C59.6821 118.573 66.3961 123.729 73.1196 128.868Z" fill="#F69300"/>
<path fill-rule="evenodd" clip-rule="evenodd" d="M20.6139 167.383L178.946 167.517C179.577 167.517 183.193 167.52 186.214 170.715C187.146 171.699 187.917 172.888 188.424 174.173C190.085 178.394 188.664 181.989 188.418 182.611C188.179 183.217 186.8 186.697 182.926 188.399C181.675 188.947 180.294 189.245 178.94 189.252C122.73 189.482 66.5195 189.209 10.3101 189.107C6.56081 189.101 4.12832 186.944 3.69689 186.562C3.16406 186.088 0.0274933 183.31 0.0229392 178.24C-0.028674 122.445 0.0229392 66.6507 0.0229392 10.8559C0.0229392 10.1906 0.0229387 6.36928 3.04717 3.17703C3.97833 2.19381 5.10503 1.3766 6.32067 0.842053C10.3183 -0.915427 13.7256 0.58247 14.3159 0.842053C14.8888 1.09395 18.1887 2.54473 19.8014 6.63237C20.323 7.95433 20.6066 9.40961 20.6139 10.8415C20.8777 63.0198 20.3503 115.202 20.6139 167.383Z" fill="black"/>
<path fill-rule="evenodd" clip-rule="evenodd" d="M151.836 37.3603C153.555 44.0298 155.659 50.5841 157.378 57.2536C157.532 57.8513 157.471 58.492 157.442 59.1109C157.213 64.064 154.056 66.6811 153.518 67.127C149.823 70.19 145.882 69.388 145.21 69.2513C144.634 69.1341 144.066 68.9602 143.516 68.7448C136.702 66.0762 129.905 63.3617 123.124 60.6016C120.572 59.5628 119.13 57.7392 118.862 57.4001C118.424 56.8458 115.852 53.5926 116.604 48.6973C116.713 47.9849 117.356 43.8022 121.352 41.194L136.566 31.2631C138.799 29.8053 141.014 29.6778 141.421 29.6545C145.964 29.3929 148.732 32.2699 149.206 32.7633C149.612 33.1858 150.026 33.6182 150.321 34.1337C150.909 35.1613 151.248 36.333 151.836 37.3603Z" fill="#F69300"/>
</g>
</g>
<defs>
<clipPath id="clip0_335_1447">
<rect width="190" height="190" fill="white"/>
</clipPath>
<clipPath id="clip1_335_1447">
<rect width="190" height="190" fill="white"/>
</clipPath>
</defs>
</svg>
