<svg width="24" height="24" viewBox="0 0 48 48" xmlns="http://www.w3.org/2000/svg" aria-hidden="true" focusable="false">
  <path fill="#EA4335" d="M24 9.5c3.36 0 6.38 1.16 8.76 3.06l6.5-6.5C35.32 2.3 29.96 0 24 0 14.64 0 6.56 5.38 2.64 13.22l7.82 6.08C12.2 13.02 17.6 9.5 24 9.5z"/>
  <path fill="#4285F4" d="M46.1 24.5c0-1.64-.15-3.22-.42-4.74H24v9h12.4c-.53 2.86-2.14 5.28-4.57 6.9l7.03 5.45C42.98 37.08 46.1 31.32 46.1 24.5z"/>
  <path fill="#FBBC05" d="M10.46 28.3a14.5 14.5 0 0 1 0-8.6l-7.82-6.08A24 24 0 0 0 0 24c0 3.8.9 7.4 2.64 10.38l7.82-6.08z"/>
  <path fill="#34A853" d="M24 48c5.96 0 11.32-1.96 15.1-5.3l-7.03-5.45c-1.96 1.32-4.48 2.1-8.07 2.1-6.4 0-11.8-3.52-13.54-8.3l-7.82 6.08C6.56 42.62 14.64 48 24 48z"/>
  <path fill="none" d="M0 0h48v48H0z"/>
</svg>
